<svg width="44" height="44" viewBox="0 0 44 44" fill="none" xmlns="http://www.w3.org/2000/svg">
<path d="M14.6673 10.9999C14.6673 11.9724 14.281 12.905 13.5934 13.5926C12.9057 14.2803 11.9731 14.6666 11.0007 14.6666C10.0282 14.6666 9.09556 14.2803 8.40793 13.5926C7.72029 12.905 7.33398 11.9724 7.33398 10.9999C7.33398 10.0275 7.72029 9.09483 8.40793 8.40719C9.09556 7.71956 10.0282 7.33325 11.0007 7.33325C11.9731 7.33325 12.9057 7.71956 13.5934 8.40719C14.281 9.09483 14.6673 10.0275 14.6673 10.9999ZM14.6673 21.9999C14.6673 22.9724 14.281 23.905 13.5934 24.5926C12.9057 25.2803 11.9731 25.6666 11.0007 25.6666C10.0282 25.6666 9.09556 25.2803 8.40793 24.5926C7.72029 23.905 7.33398 22.9724 7.33398 21.9999C7.33398 21.0275 7.72029 20.0948 8.40793 19.4072C9.09556 18.7196 10.0282 18.3333 11.0007 18.3333C11.9731 18.3333 12.9057 18.7196 13.5934 19.4072C14.281 20.0948 14.6673 21.0275 14.6673 21.9999ZM11.0007 36.6666C11.9731 36.6666 12.9057 36.2803 13.5934 35.5926C14.281 34.905 14.6673 33.9724 14.6673 32.9999C14.6673 32.0275 14.281 31.0948 13.5934 30.4072C12.9057 29.7196 11.9731 29.3333 11.0007 29.3333C10.0282 29.3333 9.09556 29.7196 8.40793 30.4072C7.72029 31.0948 7.33398 32.0275 7.33398 32.9999C7.33398 33.9724 7.72029 34.905 8.40793 35.5926C9.09556 36.2803 10.0282 36.6666 11.0007 36.6666ZM25.6673 10.9999C25.6673 11.9724 25.281 12.905 24.5934 13.5926C23.9057 14.2803 22.9731 14.6666 22.0007 14.6666C21.0282 14.6666 20.0956 14.2803 19.4079 13.5926C18.7203 12.905 18.334 11.9724 18.334 10.9999C18.334 10.0275 18.7203 9.09483 19.4079 8.40719C20.0956 7.71956 21.0282 7.33325 22.0007 7.33325C22.9731 7.33325 23.9057 7.71956 24.5934 8.40719C25.281 9.09483 25.6673 10.0275 25.6673 10.9999ZM22.0007 25.6666C22.9731 25.6666 23.9057 25.2803 24.5934 24.5926C25.281 23.905 25.6673 22.9724 25.6673 21.9999C25.6673 21.0275 25.281 20.0948 24.5934 19.4072C23.9057 18.7196 22.9731 18.3333 22.0007 18.3333C21.0282 18.3333 20.0956 18.7196 19.4079 19.4072C18.7203 20.0948 18.334 21.0275 18.334 21.9999C18.334 22.9724 18.7203 23.905 19.4079 24.5926C20.0956 25.2803 21.0282 25.6666 22.0007 25.6666ZM25.6673 32.9999C25.6673 33.9724 25.281 34.905 24.5934 35.5926C23.9057 36.2803 22.9731 36.6666 22.0007 36.6666C21.0282 36.6666 20.0956 36.2803 19.4079 35.5926C18.7203 34.905 18.334 33.9724 18.334 32.9999C18.334 32.0275 18.7203 31.0948 19.4079 30.4072C20.0956 29.7196 21.0282 29.3333 22.0007 29.3333C22.9731 29.3333 23.9057 29.7196 24.5934 30.4072C25.281 31.0948 25.6673 32.0275 25.6673 32.9999ZM33.0007 14.6666C33.9731 14.6666 34.9057 14.2803 35.5934 13.5926C36.281 12.905 36.6673 11.9724 36.6673 10.9999C36.6673 10.0275 36.281 9.09483 35.5934 8.40719C34.9057 7.71956 33.9731 7.33325 33.0007 7.33325C32.0282 7.33325 31.0956 7.71956 30.4079 8.40719C29.7203 9.09483 29.334 10.0275 29.334 10.9999C29.334 11.9724 29.7203 12.905 30.4079 13.5926C31.0956 14.2803 32.0282 14.6666 33.0007 14.6666ZM36.6673 21.9999C36.6673 22.9724 36.281 23.905 35.5934 24.5926C34.9057 25.2803 33.9731 25.6666 33.0007 25.6666C32.0282 25.6666 31.0956 25.2803 30.4079 24.5926C29.7203 23.905 29.334 22.9724 29.334 21.9999C29.334 21.0275 29.7203 20.0948 30.4079 19.4072C31.0956 18.7196 32.0282 18.3333 33.0007 18.3333C33.9731 18.3333 34.9057 18.7196 35.5934 19.4072C36.281 20.0948 36.6673 21.0275 36.6673 21.9999ZM33.0007 36.6666C33.9731 36.6666 34.9057 36.2803 35.5934 35.5926C36.281 34.905 36.6673 33.9724 36.6673 32.9999C36.6673 32.0275 36.281 31.0948 35.5934 30.4072C34.9057 29.7196 33.9731 29.3333 33.0007 29.3333C32.0282 29.3333 31.0956 29.7196 30.4079 30.4072C29.7203 31.0948 29.334 32.0275 29.334 32.9999C29.334 33.9724 29.7203 34.905 30.4079 35.5926C31.0956 36.2803 32.0282 36.6666 33.0007 36.6666Z" fill="#6E4F46"/>
</svg>
