<svg width="48" height="48" viewBox="0 0 48 48" fill="none" xmlns="http://www.w3.org/2000/svg">
<rect x="0.5" y="0.5" width="47" height="47" rx="7.5" stroke="#C9A9A0"/>
<path d="M21.825 18.8953V21.1903H20.145V23.9953H21.825V32.3337H25.2784V23.9953H27.595C27.595 23.9953 27.8134 22.6503 27.9184 21.1787H25.2917V19.262C25.2917 18.9737 25.6684 18.5887 26.0417 18.5887H27.9217V15.667H25.3634C21.74 15.667 21.825 18.4753 21.825 18.8953Z" fill="#9D7165"/>
<path d="M13.9999 10.6668C13.1159 10.6668 12.268 11.018 11.6429 11.6431C11.0178 12.2683 10.6666 13.1161 10.6666 14.0002V34.0002C10.6666 34.8842 11.0178 35.7321 11.6429 36.3572C12.268 36.9823 13.1159 37.3335 13.9999 37.3335H33.9999C34.884 37.3335 35.7318 36.9823 36.3569 36.3572C36.9821 35.7321 37.3333 34.8842 37.3333 34.0002V14.0002C37.3333 13.1161 36.9821 12.2683 36.3569 11.6431C35.7318 11.018 34.884 10.6668 33.9999 10.6668H13.9999ZM13.9999 7.3335H33.9999C35.768 7.3335 37.4637 8.03588 38.714 9.28612C39.9642 10.5364 40.6666 12.2321 40.6666 14.0002V34.0002C40.6666 35.7683 39.9642 37.464 38.714 38.7142C37.4637 39.9644 35.768 40.6668 33.9999 40.6668H13.9999C12.2318 40.6668 10.5361 39.9644 9.28587 38.7142C8.03563 37.464 7.33325 35.7683 7.33325 34.0002V14.0002C7.33325 12.2321 8.03563 10.5364 9.28587 9.28612C10.5361 8.03588 12.2318 7.3335 13.9999 7.3335Z" fill="#9D7165"/>
</svg>
