<svg width="48" height="48" viewBox="0 0 48 48" fill="none" xmlns="http://www.w3.org/2000/svg">
<rect x="0.5" y="0.5" width="47" height="47" rx="7.5" stroke="#C9A9A0"/>
<path fill-rule="evenodd" clip-rule="evenodd" d="M23.9999 7.3335C19.4733 7.3335 18.9066 7.3535 17.1283 7.4335C15.3549 7.51516 14.1433 7.79683 13.0833 8.2085C11.9707 8.62657 10.9628 9.28238 10.1299 10.1302C9.28218 10.9631 8.62637 11.971 8.20825 13.0835C7.79659 14.1435 7.51492 15.3552 7.43325 17.1285C7.35159 18.9068 7.33325 19.4735 7.33325 24.0002C7.33325 28.5268 7.35159 29.0935 7.43325 30.8718C7.51492 32.6452 7.79659 33.8568 8.20825 34.9168C8.62642 36.0293 9.28222 37.0372 10.1299 37.8702C10.9629 38.7179 11.9708 39.3737 13.0833 39.7918C14.1433 40.2035 15.3549 40.4852 17.1283 40.5668C18.9066 40.6468 19.4733 40.6668 23.9999 40.6668C28.5266 40.6668 29.0933 40.6468 30.8716 40.5668C32.6449 40.4852 33.8566 40.2035 34.9166 39.7918C36.0291 39.3737 37.037 38.7179 37.8699 37.8702C38.7177 37.0372 39.3735 36.0293 39.7916 34.9168C40.2033 33.8568 40.4849 32.6452 40.5666 30.8718C40.6466 29.0935 40.6666 28.5268 40.6666 24.0002C40.6666 19.4735 40.6466 18.9068 40.5666 17.1285C40.4849 15.3552 40.2033 14.1435 39.7916 13.0835C39.3735 11.971 38.7177 10.9631 37.8699 10.1302C37.037 9.28238 36.0291 8.62657 34.9166 8.2085C33.8566 7.79683 32.6449 7.51516 30.8716 7.4335C29.0933 7.3535 28.5266 7.3335 23.9999 7.3335ZM23.9999 10.3368C28.4499 10.3368 28.9766 10.3535 30.7333 10.4335C32.3599 10.5085 33.2416 10.7785 33.8299 11.0068C34.6066 11.3102 35.1633 11.6718 35.7466 12.2535C36.3299 12.8368 36.6899 13.3935 36.9932 14.1702C37.2199 14.7585 37.4932 15.6402 37.5666 17.2652C37.6466 19.0235 37.6633 19.5485 37.6633 24.0002C37.6633 28.4502 37.6466 28.9768 37.5666 30.7335C37.4916 32.3602 37.2199 33.2418 36.9932 33.8302C36.726 34.5541 36.3001 35.2091 35.7466 35.7468C35.1633 36.3302 34.6066 36.6902 33.8299 36.9935C33.2416 37.2202 32.3599 37.4935 30.7349 37.5668C28.9783 37.6468 28.4516 37.6635 23.9999 37.6635C19.5499 37.6635 19.0216 37.6468 17.2666 37.5668C15.6399 37.4918 14.7583 37.2202 14.1699 36.9935C13.4459 36.7264 12.7909 36.3004 12.2533 35.7468C11.6997 35.2091 11.2737 34.5542 11.0066 33.8302C10.7783 33.2418 10.5066 32.3602 10.4333 30.7352C10.3533 28.9768 10.3366 28.4518 10.3366 24.0002C10.3366 19.5502 10.3533 19.0235 10.4333 17.2668C10.5083 15.6402 10.7783 14.7585 11.0066 14.1702C11.3099 13.3935 11.6716 12.8368 12.2533 12.2535C12.8366 11.6702 13.3933 11.3102 14.1699 11.0068C14.7583 10.7785 15.6399 10.5068 17.2649 10.4335C19.0233 10.3535 19.5483 10.3368 23.9999 10.3368ZM23.9999 29.5552C22.5266 29.5552 21.1137 28.9699 20.0719 27.9281C19.0302 26.8864 18.4449 25.4734 18.4449 24.0002C18.4449 22.5269 19.0302 21.1139 20.0719 20.0722C21.1137 19.0304 22.5266 18.4452 23.9999 18.4452C25.4732 18.4452 26.8861 19.0304 27.9279 20.0722C28.9697 21.1139 29.5549 22.5269 29.5549 24.0002C29.5549 25.4734 28.9697 26.8864 27.9279 27.9281C26.8861 28.9699 25.4732 29.5552 23.9999 29.5552ZM23.9999 15.4418C22.876 15.4418 21.7631 15.6632 20.7248 16.0933C19.6864 16.5234 18.743 17.1538 17.9483 17.9485C17.1535 18.7432 16.5231 19.6867 16.093 20.725C15.663 21.7634 15.4416 22.8763 15.4416 24.0002C15.4416 25.1241 15.663 26.2369 16.093 27.2753C16.5231 28.3136 17.1535 29.2571 17.9483 30.0518C18.743 30.8465 19.6864 31.4769 20.7248 31.907C21.7631 32.3371 22.876 32.5585 23.9999 32.5585C26.2697 32.5585 28.4466 31.6568 30.0516 30.0518C31.6566 28.4468 32.5583 26.27 32.5583 24.0002C32.5583 21.7304 31.6566 19.5535 30.0516 17.9485C28.4466 16.3435 26.2697 15.4418 23.9999 15.4418ZM34.8966 15.1035C34.8966 15.3661 34.8449 15.6262 34.7443 15.8689C34.6438 16.1115 34.4965 16.332 34.3108 16.5177C34.1251 16.7034 33.9046 16.8507 33.662 16.9513C33.4193 17.0518 33.1592 17.1035 32.8966 17.1035C32.6339 17.1035 32.3739 17.0518 32.1312 16.9513C31.8886 16.8507 31.6681 16.7034 31.4824 16.5177C31.2967 16.332 31.1493 16.1115 31.0488 15.8689C30.9483 15.6262 30.8966 15.3661 30.8966 15.1035C30.8966 14.5731 31.1073 14.0644 31.4824 13.6893C31.8574 13.3142 32.3661 13.1035 32.8966 13.1035C33.427 13.1035 33.9357 13.3142 34.3108 13.6893C34.6859 14.0644 34.8966 14.5731 34.8966 15.1035Z" fill="#9D7165"/>
</svg>
