<svg width="48" height="48" viewBox="0 0 48 48" fill="none" xmlns="http://www.w3.org/2000/svg">
<rect x="0.5" y="0.5" width="47" height="47" rx="7.5" stroke="#C9A9A0"/>
<path d="M32.3332 25.8837V32.0453H28.7615V26.2953C28.7615 24.852 28.2448 23.867 26.9515 23.867C25.9648 23.867 25.3765 24.5303 25.1182 25.1737C25.0248 25.4037 24.9998 25.7237 24.9998 26.0437V32.0453H21.4265C21.4265 32.0453 21.4748 22.3087 21.4265 21.3003H24.9998V22.822L24.9765 22.857H24.9998V22.822C25.4748 22.0887 26.3215 21.047 28.2198 21.047C30.5698 21.047 32.3332 22.5837 32.3332 25.8837ZM17.6882 16.1187C16.4665 16.1187 15.6665 16.922 15.6665 17.9753C15.6665 19.0087 16.4432 19.8337 17.6415 19.8337H17.6648C18.9115 19.8337 19.6865 19.007 19.6865 17.9753C19.6632 16.922 18.9115 16.1187 17.6882 16.1187ZM15.8782 32.0453H19.4515V21.3003H15.8782V32.0453Z" fill="#9D7165"/>
<path d="M13.9999 10.6668C13.1159 10.6668 12.268 11.018 11.6429 11.6431C11.0178 12.2683 10.6666 13.1161 10.6666 14.0002V34.0002C10.6666 34.8842 11.0178 35.7321 11.6429 36.3572C12.268 36.9823 13.1159 37.3335 13.9999 37.3335H33.9999C34.884 37.3335 35.7318 36.9823 36.3569 36.3572C36.9821 35.7321 37.3333 34.8842 37.3333 34.0002V14.0002C37.3333 13.1161 36.9821 12.2683 36.3569 11.6431C35.7318 11.018 34.884 10.6668 33.9999 10.6668H13.9999ZM13.9999 7.3335H33.9999C35.768 7.3335 37.4637 8.03588 38.714 9.28612C39.9642 10.5364 40.6666 12.2321 40.6666 14.0002V34.0002C40.6666 35.7683 39.9642 37.464 38.714 38.7142C37.4637 39.9644 35.768 40.6668 33.9999 40.6668H13.9999C12.2318 40.6668 10.5361 39.9644 9.28587 38.7142C8.03563 37.464 7.33325 35.7683 7.33325 34.0002V14.0002C7.33325 12.2321 8.03563 10.5364 9.28587 9.28612C10.5361 8.03588 12.2318 7.3335 13.9999 7.3335Z" fill="#9D7165"/>
</svg>
