<svg width="107" height="48" viewBox="0 0 107 48" fill="none" xmlns="http://www.w3.org/2000/svg">
<g filter="url(#filter0_d_947_7055)">
<path d="M29.564 7.38998C29.7512 6.83371 29.4527 6.22767 28.8863 6.07396C25.8477 5.24948 22.6378 5.24517 19.5865 6.071C16.1925 6.98957 13.1471 8.89395 10.8354 11.5433C8.52375 14.1927 7.04962 17.4681 6.59944 20.9552C6.19471 24.0903 6.63395 27.27 7.86258 30.1688C8.09163 30.7092 8.73253 30.9228 9.25829 30.6619C9.78405 30.401 9.99512 29.7644 9.77046 29.2222C8.7262 26.7016 8.35657 23.9454 8.70746 21.2274C9.10381 18.1571 10.4017 15.2734 12.437 12.9408C14.4723 10.6081 17.1536 8.93144 20.1418 8.1227C22.7872 7.40672 25.5681 7.39946 28.2069 8.09253C28.7746 8.24163 29.3767 7.94624 29.564 7.38998Z" fill="#B48B7F"/>
<path d="M13.12 31.5646C13.12 33.0988 11.8764 34.3424 10.3422 34.3424C8.80811 34.3424 7.56445 33.0988 7.56445 31.5646C7.56445 30.0305 8.80811 28.7869 10.3422 28.7869C11.8764 28.7869 13.12 30.0305 13.12 31.5646ZM9.24017 31.5646C9.24017 32.1733 9.73358 32.6667 10.3422 32.6667C10.9509 32.6667 11.4443 32.1733 11.4443 31.5646C11.4443 30.956 10.9509 30.4626 10.3422 30.4626C9.73358 30.4626 9.24017 30.956 9.24017 31.5646Z" fill="#B48B7F"/>
<circle cx="32.0086" cy="8.78689" r="1.11111" fill="#B48B7F"/>
<path d="M16.594 38.0994C16.3258 38.6215 16.5306 39.2653 17.0677 39.5018C20.3439 40.9441 23.988 41.3671 27.5219 40.7014C31.4048 39.97 34.9334 37.9659 37.5503 35.0055C40.1673 32.0452 41.7235 28.2975 41.9731 24.3542C42.2003 20.7653 41.3335 17.2006 39.5002 14.1261C39.1996 13.622 38.5355 13.4978 38.0503 13.828C37.565 14.1581 37.4427 14.8176 37.7392 15.3241C39.3091 18.006 40.0492 21.1026 39.8519 24.2199C39.6321 27.6917 38.2619 30.9914 35.9578 33.5978C33.6538 36.2041 30.5471 37.9687 27.1284 38.6127C24.0588 39.1909 20.8949 38.8362 18.0407 37.6072C17.5016 37.375 16.8621 37.5773 16.594 38.0994Z" fill="#C9A9A0"/>
<path d="M39.787 12.6755C39.787 14.2096 38.5433 15.4533 37.0092 15.4533C35.4751 15.4533 34.2314 14.2096 34.2314 12.6755C34.2314 11.1414 35.4751 9.89771 37.0092 9.89771C38.5433 9.89771 39.787 11.1414 39.787 12.6755ZM35.9072 12.6755C35.9072 13.2841 36.4006 13.7775 37.0092 13.7775C37.6179 13.7775 38.1113 13.2841 38.1113 12.6755C38.1113 12.0668 37.6179 11.5734 37.0092 11.5734C36.4006 11.5734 35.9072 12.0668 35.9072 12.6755Z" fill="#C9A9A0"/>
<circle cx="14.2312" cy="36.5645" r="1.11111" fill="#C9A9A0"/>
<path d="M23.6079 20.9683C23.6461 20.6735 23.8972 20.4529 24.1944 20.4529C24.521 20.4529 24.7858 20.7177 24.7858 21.0443V27.1195V33.2135C24.7858 33.5298 24.5294 33.7862 24.2131 33.7862C23.9105 33.7862 23.6602 33.5508 23.6415 33.2488L23.2634 27.1195L23.1446 25.1595C23.1277 24.8795 23.1373 24.5986 23.1733 24.3205L23.6079 20.9683Z" fill="#99B62C"/>
<path d="M24.2893 13.302C24.2917 13.3007 24.2945 13.3007 24.2967 13.3018C27.0414 14.6686 27.2519 18.5045 24.6733 20.1634L24.2865 20.4122L23.9804 20.2125C21.4226 18.5432 21.5927 14.7398 24.2893 13.302Z" fill="#F1F6D1" stroke="#99B62C" stroke-width="1.11111"/>
<path d="M29.8453 18.5286C29.8479 18.5294 29.8499 18.5315 29.8506 18.5338C30.778 21.4563 28.1688 24.276 25.1833 23.5775L24.7354 23.4728L24.666 23.1139C24.0859 20.1152 26.9365 17.5917 29.8453 18.5286Z" fill="#F1F6D1" stroke="#99B62C" stroke-width="1.11111"/>
<path d="M18.2748 18.5286C18.2722 18.5294 18.2703 18.5315 18.2695 18.5338C17.3421 21.4563 19.9513 24.276 22.9369 23.5775L23.3847 23.4728L23.4541 23.1139C24.0342 20.1152 21.1836 17.5917 18.2748 18.5286Z" fill="#F1F6D1" stroke="#99B62C" stroke-width="1.11111"/>
<path d="M29.8453 23.5882C29.8479 23.589 29.8499 23.5911 29.8506 23.5934C30.778 26.5159 28.1688 29.3355 25.1833 28.6371L24.7354 28.5323L24.666 28.1735C24.0859 25.1748 26.9365 22.6512 29.8453 23.5882Z" fill="#F1F6D1" stroke="#99B62C" stroke-width="1.11111"/>
<path d="M18.2748 23.5882C18.2722 23.589 18.2703 23.5911 18.2695 23.5934C17.3421 26.5159 19.9513 29.3355 22.9369 28.6371L23.3847 28.5323L23.4541 28.1735C24.0342 25.1748 21.1836 22.6512 18.2748 23.5882Z" fill="#F1F6D1" stroke="#99B62C" stroke-width="1.11111"/>
<rect x="22.0088" y="23.2312" width="3.88889" height="1.66667" fill="#99B62C"/>
</g>
<path d="M100.749 18.82C100.749 19.2466 100.845 19.62 101.037 19.94C101.229 20.26 101.485 20.5106 101.805 20.692C102.135 20.8733 102.498 20.964 102.893 20.964C103.213 20.964 103.522 20.916 103.821 20.82C104.119 20.7133 104.386 20.5746 104.621 20.404C104.866 20.2226 105.053 20.0146 105.181 19.78V21.908C104.925 22.1426 104.589 22.3293 104.173 22.468C103.767 22.596 103.293 22.66 102.749 22.66C101.97 22.66 101.266 22.5 100.637 22.18C100.018 21.86 99.5274 21.412 99.1647 20.836C98.8127 20.2493 98.6367 19.5773 98.6367 18.82C98.6367 18.052 98.8127 17.38 99.1647 16.804C99.5274 16.228 100.018 15.78 100.637 15.46C101.266 15.14 101.97 14.98 102.749 14.98C103.293 14.98 103.767 15.0493 104.173 15.188C104.589 15.316 104.925 15.492 105.181 15.716V17.844C105.053 17.6093 104.861 17.4066 104.605 17.236C104.359 17.0546 104.087 16.916 103.789 16.82C103.49 16.724 103.191 16.676 102.893 16.676C102.498 16.676 102.135 16.772 101.805 16.964C101.485 17.1453 101.229 17.396 101.037 17.716C100.845 18.036 100.749 18.404 100.749 18.82Z" fill="url(#paint0_linear_947_7055)"/>
<path d="M94.7402 12.292C94.7402 11.9507 94.8629 11.6734 95.1082 11.46C95.3536 11.236 95.6469 11.124 95.9882 11.124C96.3296 11.124 96.6176 11.236 96.8522 11.46C97.0976 11.6734 97.2202 11.9507 97.2202 12.292C97.2202 12.6227 97.0976 12.9 96.8522 13.124C96.6176 13.348 96.3296 13.46 95.9882 13.46C95.6469 13.46 95.3536 13.348 95.1082 13.124C94.8629 12.9 94.7402 12.6227 94.7402 12.292ZM94.9642 15.14H96.9802V22.5H94.9642V15.14Z" fill="url(#paint1_linear_947_7055)"/>
<path d="M90.6514 18.02C90.6514 17.5293 90.5554 17.156 90.3634 16.9C90.1714 16.644 89.8621 16.516 89.4354 16.516C89.1474 16.516 88.8914 16.58 88.6674 16.708C88.4434 16.8253 88.2727 16.996 88.1554 17.22C88.0381 17.444 87.9794 17.7106 87.9794 18.02V22.5H85.8994V15.14H87.9794V16.26C88.2034 15.844 88.4968 15.5293 88.8594 15.316C89.2328 15.092 89.6807 14.98 90.2034 14.98C91.0781 14.98 91.7287 15.2306 92.1554 15.732C92.5821 16.2226 92.7954 16.9106 92.7954 17.796V22.5H90.6514V18.02Z" fill="url(#paint2_linear_947_7055)"/>
<path d="M79.0273 20.212C79.0273 20.4253 79.0806 20.612 79.1873 20.772C79.2939 20.9213 79.4379 21.0387 79.6193 21.124C79.8113 21.1987 80.0193 21.236 80.2433 21.236C80.5633 21.236 80.8513 21.172 81.1073 21.044C81.3633 20.9053 81.5713 20.7133 81.7313 20.468C81.8913 20.212 81.9713 19.908 81.9713 19.556L82.2273 20.516C82.2273 20.9853 82.0939 21.38 81.8273 21.7C81.5713 22.02 81.2353 22.26 80.8193 22.42C80.4139 22.58 79.9873 22.66 79.5393 22.66C79.0806 22.66 78.6539 22.5693 78.2593 22.388C77.8646 22.2067 77.5446 21.9453 77.2993 21.604C77.0646 21.252 76.9473 20.8253 76.9473 20.324C76.9473 19.6093 77.1979 19.044 77.6993 18.628C78.2006 18.212 78.9099 18.004 79.8273 18.004C80.2966 18.004 80.7073 18.052 81.0593 18.148C81.4219 18.244 81.7259 18.3613 81.9713 18.5C82.2166 18.6387 82.3926 18.772 82.4993 18.9V19.86C82.2113 19.6467 81.8859 19.4867 81.5233 19.38C81.1713 19.2733 80.7979 19.22 80.4033 19.22C80.0833 19.22 79.8219 19.2627 79.6193 19.348C79.4166 19.4227 79.2673 19.5347 79.1713 19.684C79.0753 19.8227 79.0273 19.9987 79.0273 20.212ZM78.2273 17.22L77.4593 15.812C77.8433 15.6093 78.3126 15.4173 78.8673 15.236C79.4219 15.044 80.0406 14.948 80.7233 14.948C81.3526 14.948 81.9126 15.0387 82.4033 15.22C82.8939 15.4013 83.2779 15.668 83.5553 16.02C83.8326 16.3613 83.9713 16.7827 83.9713 17.284V22.5H81.9713V17.716C81.9713 17.5133 81.9393 17.3427 81.8753 17.204C81.8113 17.0547 81.7099 16.932 81.5713 16.836C81.4433 16.74 81.2886 16.6707 81.1073 16.628C80.9259 16.5853 80.7233 16.564 80.4993 16.564C80.1579 16.564 79.8326 16.6013 79.5233 16.676C79.2139 16.7507 78.9473 16.8413 78.7233 16.948C78.4993 17.0547 78.3339 17.1453 78.2273 17.22Z" fill="url(#paint3_linear_947_7055)"/>
<path d="M67.6411 23.012H69.6731C69.6837 23.332 69.7691 23.604 69.9291 23.828C70.0891 24.0626 70.3077 24.244 70.5851 24.372C70.8624 24.5 71.1877 24.564 71.5611 24.564C71.9024 24.564 72.2224 24.484 72.5211 24.324C72.8304 24.164 73.0757 23.9186 73.2571 23.588C73.4491 23.2573 73.5451 22.8413 73.5451 22.34V15.14H75.5451V22.34C75.5451 23.2466 75.3637 23.9933 75.0011 24.58C74.6491 25.1666 74.1744 25.5933 73.5771 25.86C72.9797 26.1373 72.3291 26.276 71.6251 26.276C70.7717 26.276 70.0571 26.1373 69.4811 25.86C68.9051 25.5933 68.4624 25.2093 68.1531 24.708C67.8544 24.2173 67.6837 23.652 67.6411 23.012ZM67.4971 18.756C67.4971 17.9346 67.6624 17.2466 67.9931 16.692C68.3237 16.1266 68.7611 15.7 69.3051 15.412C69.8491 15.124 70.4251 14.98 71.0331 14.98C71.6517 14.98 72.1957 15.1293 72.6651 15.428C73.1451 15.7266 73.5184 16.1586 73.7851 16.724C74.0624 17.2786 74.2011 17.956 74.2011 18.756C74.2011 19.5453 74.0624 20.2226 73.7851 20.788C73.5184 21.3533 73.1451 21.7853 72.6651 22.084C72.1957 22.372 71.6517 22.516 71.0331 22.516C70.4251 22.516 69.8491 22.372 69.3051 22.084C68.7611 21.796 68.3237 21.3746 67.9931 20.82C67.6624 20.2546 67.4971 19.5666 67.4971 18.756ZM69.6411 18.756C69.6411 19.1933 69.7317 19.5666 69.9131 19.876C70.0944 20.1746 70.3397 20.404 70.6491 20.564C70.9584 20.724 71.2891 20.804 71.6411 20.804C71.9504 20.804 72.2491 20.7293 72.5371 20.58C72.8357 20.42 73.0757 20.1906 73.2571 19.892C73.4491 19.5826 73.5451 19.204 73.5451 18.756C73.5451 18.4146 73.4917 18.116 73.3851 17.86C73.2784 17.604 73.1291 17.3906 72.9371 17.22C72.7557 17.0493 72.5531 16.9213 72.3291 16.836C72.1051 16.74 71.8757 16.692 71.6411 16.692C71.2891 16.692 70.9584 16.772 70.6491 16.932C70.3397 17.092 70.0944 17.3266 69.9131 17.636C69.7317 17.9346 69.6411 18.308 69.6411 18.756Z" fill="url(#paint4_linear_947_7055)"/>
<path d="M64.0252 15.1399V22.4999H61.9932V15.1399H64.0252ZM66.1852 17.2999C66.0465 17.1719 65.9025 17.0759 65.7532 17.0119C65.6145 16.9372 65.4385 16.8999 65.2252 16.8999C64.9692 16.8999 64.7505 16.9692 64.5692 17.1079C64.3878 17.2465 64.2492 17.4439 64.1532 17.6999C64.0678 17.9452 64.0252 18.2439 64.0252 18.5959L63.4492 18.0199C63.4492 17.4332 63.5612 16.9159 63.7852 16.4679C64.0092 16.0092 64.3025 15.6465 64.6652 15.3799C65.0278 15.1025 65.4012 14.9639 65.7852 14.9639C66.0518 14.9639 66.3025 15.0119 66.5372 15.1079C66.7825 15.2039 66.9798 15.3479 67.1292 15.5399L66.1852 17.2999Z" fill="url(#paint5_linear_947_7055)"/>
<path d="M50.9922 16.8999C50.9922 17.6146 51.1415 18.2493 51.4402 18.8039C51.7388 19.3586 52.1495 19.7959 52.6722 20.1159C53.1948 20.4359 53.8028 20.5959 54.4962 20.5959C55.1895 20.5959 55.7975 20.4359 56.3202 20.1159C56.8428 19.7959 57.2482 19.3586 57.5362 18.8039C57.8348 18.2493 57.9842 17.6146 57.9842 16.8999C57.9842 16.1853 57.8402 15.5506 57.5522 14.9959C57.2642 14.4413 56.8588 14.0039 56.3362 13.6839C55.8135 13.3639 55.2002 13.2039 54.4962 13.2039C53.8028 13.2039 53.1948 13.3639 52.6722 13.6839C52.1495 14.0039 51.7388 14.4413 51.4402 14.9959C51.1415 15.5506 50.9922 16.1853 50.9922 16.8999ZM48.5762 16.8999C48.5762 16.0466 48.7255 15.2679 49.0242 14.5639C49.3228 13.8493 49.7388 13.2306 50.2722 12.7079C50.8055 12.1853 51.4295 11.7853 52.1442 11.5079C52.8695 11.2199 53.6535 11.0759 54.4962 11.0759C55.3495 11.0759 56.1335 11.2199 56.8482 11.5079C57.5628 11.7853 58.1868 12.1853 58.7202 12.7079C59.2642 13.2306 59.6802 13.8493 59.9682 14.5639C60.2668 15.2679 60.4162 16.0466 60.4162 16.8999C60.4162 17.7426 60.2668 18.5266 59.9682 19.2519C59.6802 19.9666 59.2695 20.5906 58.7362 21.1239C58.2135 21.6573 57.5895 22.0733 56.8642 22.3719C56.1495 22.6599 55.3602 22.8039 54.4962 22.8039C53.6322 22.8039 52.8375 22.6599 52.1122 22.3719C51.3975 22.0733 50.7735 21.6573 50.2402 21.1239C49.7068 20.5906 49.2962 19.9666 49.0082 19.2519C48.7202 18.5266 48.5762 17.7426 48.5762 16.8999Z" fill="url(#paint6_linear_947_7055)"/>
<path d="M101.861 35.66C101.178 35.66 100.57 35.5 100.037 35.18C99.5144 34.8493 99.1037 34.396 98.805 33.82C98.517 33.244 98.373 32.5773 98.373 31.82C98.373 31.052 98.5224 30.38 98.821 29.804C99.1304 29.228 99.557 28.78 100.101 28.46C100.656 28.14 101.296 27.98 102.021 27.98C102.746 27.98 103.365 28.1346 103.877 28.444C104.4 28.7426 104.8 29.1746 105.077 29.74C105.354 30.3053 105.493 30.9773 105.493 31.756C105.493 31.8306 105.488 31.9106 105.477 31.996C105.477 32.0706 105.477 32.1186 105.477 32.14H99.189V31.052H104.469L103.957 31.788C103.989 31.7346 104.021 31.6546 104.053 31.548C104.085 31.4306 104.101 31.3346 104.101 31.26C104.101 30.8226 104.01 30.444 103.829 30.124C103.658 29.804 103.418 29.5533 103.109 29.372C102.8 29.1906 102.437 29.1 102.021 29.1C101.53 29.1 101.109 29.2066 100.757 29.42C100.416 29.6226 100.149 29.9213 99.957 30.316C99.7757 30.7 99.6797 31.1746 99.669 31.74C99.669 32.316 99.7597 32.8066 99.941 33.212C100.122 33.6173 100.389 33.9266 100.741 34.14C101.093 34.3533 101.52 34.46 102.021 34.46C102.522 34.46 102.965 34.3533 103.349 34.14C103.733 33.916 104.058 33.58 104.325 33.132L105.365 33.788C104.981 34.4066 104.496 34.876 103.909 35.196C103.333 35.5053 102.65 35.66 101.861 35.66Z" fill="#9D7165"/>
<path d="M95.3264 31.02C95.3264 30.412 95.1931 29.9533 94.9264 29.644C94.6598 29.3346 94.2704 29.18 93.7584 29.18C93.3851 29.18 93.0544 29.26 92.7664 29.42C92.4891 29.5693 92.2704 29.7826 92.1104 30.06C91.9611 30.3373 91.8864 30.6573 91.8864 31.02V35.5H90.6064V28.14H91.8864V29.292C92.1318 28.844 92.4358 28.5133 92.7984 28.3C93.1718 28.0866 93.5984 27.98 94.0784 27.98C94.8571 27.98 95.4704 28.2413 95.9184 28.764C96.3771 29.276 96.6064 29.9746 96.6064 30.86V35.5H95.3264V31.02Z" fill="#9D7165"/>
<path d="M86.4502 25.1C86.4502 24.8546 86.5355 24.6466 86.7062 24.476C86.8875 24.3053 87.0955 24.22 87.3302 24.22C87.5755 24.22 87.7835 24.3053 87.9542 24.476C88.1249 24.6466 88.2102 24.8546 88.2102 25.1C88.2102 25.3346 88.1249 25.5426 87.9542 25.724C87.7835 25.8946 87.5755 25.98 87.3302 25.98C87.0955 25.98 86.8875 25.8946 86.7062 25.724C86.5355 25.5426 86.4502 25.3346 86.4502 25.1ZM86.6902 28.14H87.9702V35.5H86.6902V28.14Z" fill="#9D7165"/>
<path d="M79.3233 33.228C79.3233 33.5053 79.3873 33.7453 79.5153 33.948C79.654 34.1506 79.8407 34.3053 80.0753 34.412C80.3207 34.508 80.598 34.556 80.9073 34.556C81.302 34.556 81.654 34.476 81.9633 34.316C82.2833 34.156 82.534 33.932 82.7153 33.644C82.9073 33.3453 83.0033 33.004 83.0033 32.62L83.2593 33.58C83.2593 34.0493 83.1153 34.4386 82.8273 34.748C82.55 35.0573 82.2033 35.2866 81.7873 35.436C81.382 35.5853 80.9767 35.66 80.5713 35.66C80.1233 35.66 79.702 35.5693 79.3073 35.388C78.9233 35.196 78.614 34.924 78.3793 34.572C78.1447 34.22 78.0273 33.7933 78.0273 33.292C78.0273 32.5773 78.278 32.0066 78.7793 31.58C79.2913 31.1426 80.0007 30.924 80.9073 30.924C81.4407 30.924 81.8833 30.988 82.2353 31.116C82.598 31.2333 82.886 31.372 83.0993 31.532C83.3127 31.6813 83.4567 31.804 83.5313 31.9V32.652C83.158 32.396 82.774 32.2146 82.3793 32.108C81.9847 31.9906 81.5633 31.932 81.1153 31.932C80.6993 31.932 80.358 31.9853 80.0913 32.092C79.8353 32.1986 79.6433 32.348 79.5153 32.54C79.3873 32.732 79.3233 32.9613 79.3233 33.228ZM79.1313 29.836L78.5073 28.892C78.7847 28.6893 79.1633 28.4866 79.6433 28.284C80.134 28.0813 80.7207 27.98 81.4033 27.98C81.9793 27.98 82.4807 28.0706 82.9073 28.252C83.3447 28.4226 83.6807 28.6733 83.9153 29.004C84.1607 29.3346 84.2833 29.74 84.2833 30.22V35.5H83.0033V30.396C83.0033 30.14 82.9607 29.932 82.8753 29.772C82.79 29.6013 82.6673 29.468 82.5073 29.372C82.358 29.276 82.182 29.2066 81.9793 29.164C81.7767 29.1213 81.5633 29.1 81.3393 29.1C80.9767 29.1 80.646 29.1426 80.3473 29.228C80.0593 29.3133 79.814 29.4146 79.6113 29.532C79.4087 29.6493 79.2487 29.7506 79.1313 29.836Z" fill="#9D7165"/>
<path d="M74.5427 28.14V35.5H73.2627V28.14H74.5427ZM76.7667 29.548C76.596 29.42 76.4414 29.3293 76.3027 29.276C76.164 29.212 75.988 29.18 75.7747 29.18C75.4547 29.18 75.204 29.26 75.0227 29.42C74.8414 29.58 74.7134 29.7986 74.6387 30.076C74.5747 30.3533 74.5427 30.668 74.5427 31.02H73.9667C73.9667 30.4333 74.068 29.916 74.2707 29.468C74.484 29.0093 74.756 28.6466 75.0867 28.38C75.4174 28.1133 75.7534 27.98 76.0947 27.98C76.3614 27.98 76.6067 28.0173 76.8307 28.092C77.0654 28.156 77.2787 28.2893 77.4707 28.492L76.7667 29.548Z" fill="#9D7165"/>
<path d="M66.1357 23.02H67.4157V35.5H66.1357V23.02ZM70.1357 28.14H71.7357L68.5357 31.18L72.0557 35.5H70.4557L66.9357 31.18L70.1357 28.14Z" fill="#9D7165"/>
<path d="M56.2002 24.3H57.5602V31.82C57.5602 32.588 57.7682 33.2067 58.1842 33.676C58.6002 34.1454 59.2082 34.38 60.0082 34.38C60.8082 34.38 61.4162 34.1454 61.8322 33.676C62.2482 33.2067 62.4562 32.588 62.4562 31.82V24.3H63.8162V31.82C63.8162 32.3747 63.7255 32.8867 63.5442 33.356C63.3735 33.8254 63.1175 34.2307 62.7762 34.572C62.4455 34.9134 62.0455 35.18 61.5762 35.372C61.1069 35.564 60.5842 35.66 60.0082 35.66C59.4322 35.66 58.9095 35.564 58.4402 35.372C57.9709 35.18 57.5655 34.9134 57.2242 34.572C56.8935 34.2307 56.6375 33.8254 56.4562 33.356C56.2855 32.8867 56.2002 32.3747 56.2002 31.82V24.3Z" fill="#9D7165"/>
<defs>
<filter id="filter0_d_947_7055" x="0.666667" y="0.777778" width="47.1296" height="47.1291" filterUnits="userSpaceOnUse" color-interpolation-filters="sRGB">
<feFlood flood-opacity="0" result="BackgroundImageFix"/>
<feColorMatrix in="SourceAlpha" type="matrix" values="0 0 0 0 0 0 0 0 0 0 0 0 0 0 0 0 0 0 127 0" result="hardAlpha"/>
<feOffset dy="1.11111"/>
<feGaussianBlur stdDeviation="1.66667"/>
<feColorMatrix type="matrix" values="0 0 0 0 0.364706 0 0 0 0 0.27451 0 0 0 0 0.247059 0 0 0 0.3 0"/>
<feBlend mode="normal" in2="BackgroundImageFix" result="effect1_dropShadow_947_7055"/>
<feBlend mode="normal" in="SourceGraphic" in2="effect1_dropShadow_947_7055" result="shape"/>
</filter>
<linearGradient id="paint0_linear_947_7055" x1="77.0005" y1="8.49998" x2="77.0005" y2="24.5" gradientUnits="userSpaceOnUse">
<stop stop-color="#78911F"/>
<stop offset="1" stop-color="#99B62C"/>
</linearGradient>
<linearGradient id="paint1_linear_947_7055" x1="76.9997" y1="8.50002" x2="76.9997" y2="24.5" gradientUnits="userSpaceOnUse">
<stop stop-color="#78911F"/>
<stop offset="1" stop-color="#99B62C"/>
</linearGradient>
<linearGradient id="paint2_linear_947_7055" x1="77.0004" y1="8.49998" x2="77.0004" y2="24.5" gradientUnits="userSpaceOnUse">
<stop stop-color="#78911F"/>
<stop offset="1" stop-color="#99B62C"/>
</linearGradient>
<linearGradient id="paint3_linear_947_7055" x1="77" y1="8.5" x2="77" y2="24.5" gradientUnits="userSpaceOnUse">
<stop stop-color="#78911F"/>
<stop offset="1" stop-color="#99B62C"/>
</linearGradient>
<linearGradient id="paint4_linear_947_7055" x1="77.0003" y1="8.49998" x2="77.0003" y2="24.5" gradientUnits="userSpaceOnUse">
<stop stop-color="#78911F"/>
<stop offset="1" stop-color="#99B62C"/>
</linearGradient>
<linearGradient id="paint5_linear_947_7055" x1="77.0004" y1="8.49987" x2="77.0004" y2="24.4999" gradientUnits="userSpaceOnUse">
<stop stop-color="#78911F"/>
<stop offset="1" stop-color="#99B62C"/>
</linearGradient>
<linearGradient id="paint6_linear_947_7055" x1="77.0002" y1="8.49993" x2="77.0002" y2="24.4999" gradientUnits="userSpaceOnUse">
<stop stop-color="#78911F"/>
<stop offset="1" stop-color="#99B62C"/>
</linearGradient>
</defs>
</svg>
