<svg width="93" height="56" viewBox="0 0 93 56" fill="none" xmlns="http://www.w3.org/2000/svg">
<path d="M21 19C21 12.3726 26.3726 7 33 7H39V37C39 43.6274 33.6274 49 27 49H21V19Z" fill="#C9A9A0"/>
<path fill-rule="evenodd" clip-rule="evenodd" d="M39 7H38V37C38 43.6274 33.0751 49 27 49C33.6274 49 39 43.6274 39 37V7Z" fill="#DEC9C3"/>
<path d="M21 19C21 12.3726 15.6274 7 9 7H3V37C3 43.6274 8.37258 49 15 49H21V19Z" fill="#ECE0DC"/>
<path fill-rule="evenodd" clip-rule="evenodd" d="M3 7H4V37C4 43.6274 8.92487 49 15 49C8.37258 49 3 43.6274 3 37V7Z" fill="#DEC9C3"/>
<g filter="url(#filter0_dd_2005_590)">
<path d="M21 19C21 12.3726 26.3726 7 33 7H39V15C39 21.6274 33.6274 27 27 27H21V19Z" fill="#B7D04B"/>
</g>
<g filter="url(#filter1_dd_2005_590)">
<path d="M21 19C21 12.3726 15.6274 7 9 7H3V15C3 21.6274 8.37258 27 15 27H21V19Z" fill="#E3EEA8"/>
</g>
<path d="M21 42C21 35.3726 26.3726 30 33 30H39V37C39 43.6274 33.6274 49 27 49H21V42Z" fill="#E3EEA8"/>
<path fill-rule="evenodd" clip-rule="evenodd" d="M39 30H38V37C38 43.0751 33.0751 48 27 48H21V49H27C33.6274 49 39 43.6274 39 37V30Z" fill="#DEC9C3"/>
<path d="M21 42C21 35.3726 15.6274 30 9 30H3V37C3 43.6274 8.37258 49 15 49H21V42Z" fill="#B7D04B"/>
<path fill-rule="evenodd" clip-rule="evenodd" d="M3 30H4V37C4 43.0751 8.92487 48 15 48H21V49H15C8.37258 49 3 43.6274 3 37V30Z" fill="#DEC9C3"/>
<path d="M89.44 40.9771C88.74 40.9771 88.1287 40.8371 87.606 40.5571C87.0833 40.2771 86.6773 39.8897 86.388 39.3951C86.108 38.8911 85.968 38.2984 85.968 37.6171C85.968 36.9264 86.108 36.3337 86.388 35.8391C86.6773 35.3351 87.0833 34.9477 87.606 34.6771C88.1287 34.3971 88.7447 34.2571 89.454 34.2571C90.1634 34.2571 90.7654 34.3877 91.26 34.6491C91.764 34.9011 92.1467 35.2744 92.408 35.7691C92.6693 36.2544 92.8 36.8424 92.8 37.5331C92.8 37.6171 92.7953 37.7057 92.786 37.7991C92.786 37.8924 92.7813 37.9671 92.772 38.0231H87.004V36.9031H91.19L90.7 37.5471C90.7373 37.4911 90.77 37.4164 90.798 37.3231C90.8353 37.2204 90.854 37.1364 90.854 37.0711C90.854 36.7537 90.7933 36.4831 90.672 36.2591C90.56 36.0351 90.3967 35.8577 90.182 35.7271C89.9673 35.5964 89.7153 35.5311 89.426 35.5311C89.0713 35.5311 88.7727 35.6104 88.53 35.7691C88.2967 35.9184 88.1147 36.1471 87.984 36.4551C87.8627 36.7537 87.7974 37.1271 87.788 37.5751C87.788 38.0044 87.8487 38.3684 87.97 38.6671C88.1007 38.9657 88.292 39.1944 88.544 39.3531C88.796 39.5117 89.0994 39.5911 89.454 39.5911C89.8554 39.5911 90.196 39.5164 90.476 39.3671C90.7654 39.2084 91.0034 38.9751 91.19 38.6671L92.772 39.1571C92.436 39.7637 91.988 40.2211 91.428 40.5291C90.8774 40.8277 90.2147 40.9771 89.44 40.9771Z" fill="#B48B7F"/>
<path d="M82.4598 36.9171C82.4598 36.4877 82.3758 36.1611 82.2078 35.9371C82.0398 35.7131 81.7691 35.6011 81.3958 35.6011C81.1438 35.6011 80.9198 35.6571 80.7238 35.7691C80.5278 35.8717 80.3784 36.0211 80.2758 36.2171C80.1731 36.4131 80.1218 36.6464 80.1218 36.9171V40.8371H78.3018V34.3971H80.1218V35.3771C80.3178 35.0131 80.5744 34.7377 80.8918 34.5511C81.2184 34.3551 81.6104 34.2571 82.0678 34.2571C82.8331 34.2571 83.4024 34.4764 83.7758 34.9151C84.1491 35.3444 84.3358 35.9464 84.3358 36.7211V40.8371H82.4598V36.9171Z" fill="#B48B7F"/>
<path d="M74.137 31.9051C74.137 31.6064 74.2443 31.3637 74.459 31.1771C74.6736 30.9811 74.9303 30.8831 75.229 30.8831C75.5276 30.8831 75.7796 30.9811 75.985 31.1771C76.1996 31.3637 76.307 31.6064 76.307 31.9051C76.307 32.1944 76.1996 32.4371 75.985 32.6331C75.7796 32.8291 75.5276 32.9271 75.229 32.9271C74.9303 32.9271 74.6736 32.8291 74.459 32.6331C74.2443 32.4371 74.137 32.1944 74.137 31.9051ZM74.333 34.3971H76.097V40.8371H74.333V34.3971Z" fill="#B48B7F"/>
<path d="M67.9282 38.835C67.9282 39.0217 67.9748 39.185 68.0682 39.325C68.1615 39.4557 68.2875 39.5583 68.4462 39.633C68.6142 39.6983 68.7962 39.731 68.9922 39.731C69.2722 39.731 69.5242 39.675 69.7482 39.563C69.9722 39.4417 70.1542 39.2737 70.2942 39.059C70.4342 38.835 70.5042 38.569 70.5042 38.261L70.7282 39.101C70.7282 39.5117 70.6115 39.857 70.3782 40.137C70.1542 40.417 69.8602 40.627 69.4962 40.767C69.1415 40.907 68.7682 40.977 68.3762 40.977C67.9748 40.977 67.6015 40.8977 67.2562 40.739C66.9108 40.5803 66.6308 40.3517 66.4162 40.053C66.2108 39.745 66.1082 39.3717 66.1082 38.933C66.1082 38.3077 66.3275 37.813 66.7662 37.449C67.2048 37.085 67.8255 36.903 68.6282 36.903C69.0388 36.903 69.3982 36.945 69.7062 37.029C70.0235 37.113 70.2895 37.2157 70.5042 37.337C70.7188 37.4583 70.8728 37.575 70.9662 37.687V38.527C70.7142 38.3403 70.4295 38.2003 70.1122 38.107C69.8042 38.0137 69.4775 37.967 69.1322 37.967C68.8522 37.967 68.6235 38.0043 68.4462 38.079C68.2688 38.1443 68.1382 38.2423 68.0542 38.373C67.9702 38.4943 67.9282 38.6483 67.9282 38.835ZM67.2282 36.217L66.5562 34.985C66.8922 34.8077 67.3028 34.6397 67.7882 34.481C68.2735 34.313 68.8148 34.229 69.4122 34.229C69.9628 34.229 70.4528 34.3083 70.8822 34.467C71.3115 34.6257 71.6475 34.859 71.8902 35.167C72.1328 35.4657 72.2542 35.8343 72.2542 36.273V40.837H70.5042V36.651C70.5042 36.4737 70.4762 36.3243 70.4202 36.203C70.3642 36.0723 70.2755 35.965 70.1542 35.881C70.0422 35.797 69.9068 35.7363 69.7482 35.699C69.5895 35.6617 69.4122 35.643 69.2162 35.643C68.9175 35.643 68.6328 35.6757 68.3622 35.741C68.0915 35.8063 67.8582 35.8857 67.6622 35.979C67.4662 36.0723 67.3215 36.1517 67.2282 36.217Z" fill="#B48B7F"/>
<path d="M62.683 34.3972V40.8372H60.905V34.3972H62.683ZM64.573 36.2872C64.4517 36.1752 64.3257 36.0912 64.195 36.0352C64.0737 35.9698 63.9197 35.9372 63.733 35.9372C63.509 35.9372 63.3177 35.9978 63.159 36.1192C63.0004 36.2405 62.879 36.4132 62.795 36.6372C62.7204 36.8518 62.683 37.1132 62.683 37.4212L62.179 36.9172C62.179 36.4038 62.277 35.9512 62.473 35.5592C62.669 35.1578 62.9257 34.8405 63.243 34.6072C63.5604 34.3645 63.887 34.2432 64.223 34.2432C64.4564 34.2432 64.6757 34.2852 64.881 34.3692C65.0957 34.4532 65.2684 34.5792 65.399 34.7472L64.573 36.2872Z" fill="#B48B7F"/>
<path d="M53.1045 29.917H54.8545V40.837H53.1045V29.917ZM57.2205 34.397H59.3905L56.6185 37.057L59.6705 40.837H57.5145L54.4485 37.057L57.2205 34.397Z" fill="#B48B7F"/>
<path d="M43.49 31.0371H45.492V37.4911C45.492 38.0511 45.6367 38.5038 45.926 38.8491C46.2247 39.1851 46.6633 39.3531 47.242 39.3531C47.8207 39.3531 48.2547 39.1851 48.544 38.8491C48.8427 38.5038 48.992 38.0511 48.992 37.4911V31.0371H50.994V37.6171C50.994 38.1958 50.9007 38.7044 50.714 39.1431C50.5273 39.5818 50.2613 39.9504 49.916 40.2491C49.58 40.5478 49.1833 40.7718 48.726 40.9211C48.2687 41.0798 47.774 41.1591 47.242 41.1591C46.7007 41.1591 46.2013 41.0798 45.744 40.9211C45.2867 40.7718 44.89 40.5478 44.554 40.2491C44.218 39.9504 43.9567 39.5818 43.77 39.1431C43.5833 38.7044 43.49 38.1958 43.49 37.6171V31.0371Z" fill="#B48B7F"/>
<path d="M88.6507 21.6171C88.6507 21.9904 88.7347 22.3171 88.9027 22.5971C89.0707 22.8771 89.2947 23.0964 89.5747 23.2551C89.8641 23.4137 90.1814 23.4931 90.5267 23.4931C90.8067 23.4931 91.0774 23.4511 91.3387 23.3671C91.6001 23.2737 91.8334 23.1524 92.0387 23.0031C92.2534 22.8444 92.4167 22.6624 92.5287 22.4571V24.3191C92.3047 24.5244 92.0107 24.6877 91.6467 24.8091C91.2921 24.9211 90.8767 24.9771 90.4007 24.9771C89.7194 24.9771 89.1034 24.8371 88.5527 24.5571C88.0114 24.2771 87.5821 23.8851 87.2647 23.3811C86.9567 22.8677 86.8027 22.2797 86.8027 21.6171C86.8027 20.9451 86.9567 20.3571 87.2647 19.8531C87.5821 19.3491 88.0114 18.9571 88.5527 18.6771C89.1034 18.3971 89.7194 18.2571 90.4007 18.2571C90.8767 18.2571 91.2921 18.3177 91.6467 18.4391C92.0107 18.5511 92.3047 18.7051 92.5287 18.9011V20.7631C92.4167 20.5577 92.2487 20.3804 92.0247 20.2311C91.8101 20.0724 91.5721 19.9511 91.3107 19.8671C91.0494 19.7831 90.7881 19.7411 90.5267 19.7411C90.1814 19.7411 89.8641 19.8251 89.5747 19.9931C89.2947 20.1517 89.0707 20.3711 88.9027 20.6511C88.7347 20.9311 88.6507 21.2531 88.6507 21.6171Z" fill="#B48B7F"/>
<path d="M83.394 15.9051C83.394 15.6064 83.5014 15.3637 83.716 15.1771C83.9307 14.9811 84.1874 14.8831 84.486 14.8831C84.7847 14.8831 85.0367 14.9811 85.242 15.1771C85.4567 15.3637 85.564 15.6064 85.564 15.9051C85.564 16.1944 85.4567 16.4371 85.242 16.6331C85.0367 16.8291 84.7847 16.9271 84.486 16.9271C84.1874 16.9271 83.9307 16.8291 83.716 16.6331C83.5014 16.4371 83.394 16.1944 83.394 15.9051ZM83.59 18.3971H85.354V24.8371H83.59V18.3971Z" fill="#B48B7F"/>
<path d="M79.8157 20.9171C79.8157 20.4877 79.7317 20.1611 79.5637 19.9371C79.3957 19.7131 79.125 19.6011 78.7517 19.6011C78.4997 19.6011 78.2757 19.6571 78.0797 19.7691C77.8837 19.8717 77.7344 20.0211 77.6317 20.2171C77.529 20.4131 77.4777 20.6464 77.4777 20.9171V24.8371H75.6577V18.3971H77.4777V19.3771C77.6737 19.0131 77.9304 18.7377 78.2477 18.5511C78.5744 18.3551 78.9664 18.2571 79.4237 18.2571C80.189 18.2571 80.7584 18.4764 81.1317 18.9151C81.505 19.3444 81.6917 19.9464 81.6917 20.7211V24.8371H79.8157V20.9171Z" fill="#B48B7F"/>
<path d="M69.645 22.835C69.645 23.0217 69.6916 23.185 69.785 23.325C69.8783 23.4557 70.0043 23.5583 70.163 23.633C70.331 23.6983 70.5129 23.731 70.709 23.731C70.989 23.731 71.241 23.675 71.465 23.563C71.689 23.4417 71.871 23.2737 72.011 23.059C72.151 22.835 72.221 22.569 72.221 22.261L72.445 23.101C72.445 23.5117 72.3283 23.857 72.095 24.137C71.871 24.417 71.577 24.627 71.213 24.767C70.8583 24.907 70.485 24.977 70.093 24.977C69.6916 24.977 69.3183 24.8977 68.9729 24.739C68.6276 24.5803 68.3476 24.3517 68.133 24.053C67.9276 23.745 67.825 23.3717 67.825 22.933C67.825 22.3077 68.0443 21.813 68.483 21.449C68.9216 21.085 69.5423 20.903 70.345 20.903C70.7556 20.903 71.115 20.945 71.423 21.029C71.7403 21.113 72.0063 21.2157 72.221 21.337C72.4356 21.4583 72.5896 21.575 72.683 21.687V22.527C72.431 22.3403 72.1463 22.2003 71.829 22.107C71.521 22.0137 71.1943 21.967 70.849 21.967C70.569 21.967 70.3403 22.0043 70.163 22.079C69.9856 22.1443 69.855 22.2423 69.771 22.373C69.687 22.4943 69.645 22.6483 69.645 22.835ZM68.945 20.217L68.273 18.985C68.609 18.8077 69.0196 18.6397 69.505 18.481C69.9903 18.313 70.5316 18.229 71.129 18.229C71.6796 18.229 72.1696 18.3083 72.599 18.467C73.0283 18.6257 73.3643 18.859 73.607 19.167C73.8496 19.4657 73.971 19.8343 73.971 20.273V24.837H72.221V20.651C72.221 20.4737 72.193 20.3243 72.137 20.203C72.081 20.0723 71.9923 19.965 71.871 19.881C71.759 19.797 71.6236 19.7363 71.465 19.699C71.3063 19.6617 71.129 19.643 70.933 19.643C70.6343 19.643 70.3496 19.6757 70.079 19.741C69.8083 19.8063 69.575 19.8857 69.379 19.979C69.183 20.0723 69.0383 20.1517 68.945 20.217Z" fill="#B48B7F"/>
<path d="M59.6817 25.2851H61.4597C61.469 25.5651 61.5437 25.8031 61.6837 25.9991C61.8237 26.2044 62.015 26.3631 62.2577 26.4751C62.5003 26.5871 62.785 26.6431 63.1117 26.6431C63.4103 26.6431 63.6903 26.5731 63.9517 26.4331C64.2223 26.2931 64.437 26.0784 64.5957 25.7891C64.7637 25.4997 64.8477 25.1357 64.8477 24.6971V18.3971H66.5977V24.6971C66.5977 25.4904 66.439 26.1437 66.1217 26.6571C65.8137 27.1704 65.3983 27.5437 64.8757 27.7771C64.353 28.0197 63.7837 28.1411 63.1677 28.1411C62.421 28.1411 61.7957 28.0197 61.2917 27.7771C60.7877 27.5437 60.4003 27.2077 60.1297 26.7691C59.8683 26.3397 59.719 25.8451 59.6817 25.2851ZM59.5557 21.5611C59.5557 20.8424 59.7003 20.2404 59.9897 19.7551C60.279 19.2604 60.6617 18.8871 61.1377 18.6351C61.6137 18.3831 62.1177 18.2571 62.6497 18.2571C63.191 18.2571 63.667 18.3877 64.0777 18.6491C64.4977 18.9104 64.8243 19.2884 65.0577 19.7831C65.3003 20.2684 65.4217 20.8611 65.4217 21.5611C65.4217 22.2517 65.3003 22.8444 65.0577 23.3391C64.8243 23.8337 64.4977 24.2117 64.0777 24.4731C63.667 24.7251 63.191 24.8511 62.6497 24.8511C62.1177 24.8511 61.6137 24.7251 61.1377 24.4731C60.6617 24.2211 60.279 23.8524 59.9897 23.3671C59.7003 22.8724 59.5557 22.2704 59.5557 21.5611ZM61.4317 21.5611C61.4317 21.9437 61.511 22.2704 61.6697 22.5411C61.8283 22.8024 62.043 23.0031 62.3137 23.1431C62.5843 23.2831 62.8737 23.3531 63.1817 23.3531C63.4523 23.3531 63.7137 23.2877 63.9657 23.1571C64.227 23.0171 64.437 22.8164 64.5957 22.5551C64.7637 22.2844 64.8477 21.9531 64.8477 21.5611C64.8477 21.2624 64.801 21.0011 64.7077 20.7771C64.6143 20.5531 64.4837 20.3664 64.3157 20.2171C64.157 20.0677 63.9797 19.9557 63.7837 19.8811C63.5877 19.7971 63.387 19.7551 63.1817 19.7551C62.8737 19.7551 62.5843 19.8251 62.3137 19.9651C62.043 20.1051 61.8283 20.3104 61.6697 20.5811C61.511 20.8424 61.4317 21.1691 61.4317 21.5611Z" fill="#B48B7F"/>
<path d="M56.5177 18.3972V24.8372H54.7397V18.3972H56.5177ZM58.4077 20.2872C58.2864 20.1752 58.1604 20.0912 58.0297 20.0352C57.9084 19.9698 57.7544 19.9372 57.5677 19.9372C57.3437 19.9372 57.1524 19.9978 56.9937 20.1192C56.8351 20.2405 56.7137 20.4132 56.6297 20.6372C56.5551 20.8518 56.5177 21.1132 56.5177 21.4212L56.0137 20.9172C56.0137 20.4038 56.1117 19.9512 56.3077 19.5592C56.5037 19.1578 56.7604 18.8405 57.0777 18.6072C57.3951 18.3645 57.7217 18.2432 58.0577 18.2432C58.2911 18.2432 58.5104 18.2852 58.7157 18.3692C58.9304 18.4532 59.1031 18.5792 59.2337 18.7472L58.4077 20.2872Z" fill="#B48B7F"/>
<path d="M45.114 19.9371C45.114 20.5624 45.2447 21.1177 45.506 21.6031C45.7673 22.0884 46.1267 22.4711 46.584 22.7511C47.0413 23.0311 47.5733 23.1711 48.18 23.1711C48.7867 23.1711 49.3187 23.0311 49.776 22.7511C50.2333 22.4711 50.588 22.0884 50.84 21.6031C51.1013 21.1177 51.232 20.5624 51.232 19.9371C51.232 19.3117 51.106 18.7564 50.854 18.2711C50.602 17.7857 50.2473 17.4031 49.79 17.1231C49.3327 16.8431 48.796 16.7031 48.18 16.7031C47.5733 16.7031 47.0413 16.8431 46.584 17.1231C46.1267 17.4031 45.7673 17.7857 45.506 18.2711C45.2447 18.7564 45.114 19.3117 45.114 19.9371ZM43 19.9371C43 19.1904 43.1307 18.5091 43.392 17.8931C43.6533 17.2677 44.0173 16.7264 44.484 16.2691C44.9507 15.8117 45.4967 15.4617 46.122 15.2191C46.7567 14.9671 47.4427 14.8411 48.18 14.8411C48.9267 14.8411 49.6127 14.9671 50.238 15.2191C50.8633 15.4617 51.4093 15.8117 51.876 16.2691C52.352 16.7264 52.716 17.2677 52.968 17.8931C53.2293 18.5091 53.36 19.1904 53.36 19.9371C53.36 20.6744 53.2293 21.3604 52.968 21.9951C52.716 22.6204 52.3567 23.1664 51.89 23.6331C51.4327 24.0997 50.8867 24.4637 50.252 24.7251C49.6267 24.9771 48.936 25.1031 48.18 25.1031C47.424 25.1031 46.7287 24.9771 46.094 24.7251C45.4687 24.4637 44.9227 24.0997 44.456 23.6331C43.9893 23.1664 43.63 22.6204 43.378 21.9951C43.126 21.3604 43 20.6744 43 19.9371Z" fill="#B48B7F"/>
<defs>
<filter id="filter0_dd_2005_590" x="18" y="5" width="24" height="26" filterUnits="userSpaceOnUse" color-interpolation-filters="sRGB">
<feFlood flood-opacity="0" result="BackgroundImageFix"/>
<feColorMatrix in="SourceAlpha" type="matrix" values="0 0 0 0 0 0 0 0 0 0 0 0 0 0 0 0 0 0 127 0" result="hardAlpha"/>
<feOffset dy="1"/>
<feGaussianBlur stdDeviation="1.5"/>
<feColorMatrix type="matrix" values="0 0 0 0 0.690196 0 0 0 0 0.552941 0 0 0 0 0.427451 0 0 0 0.15 0"/>
<feBlend mode="normal" in2="BackgroundImageFix" result="effect1_dropShadow_2005_590"/>
<feColorMatrix in="SourceAlpha" type="matrix" values="0 0 0 0 0 0 0 0 0 0 0 0 0 0 0 0 0 0 127 0" result="hardAlpha"/>
<feOffset dy="1"/>
<feGaussianBlur stdDeviation="1"/>
<feColorMatrix type="matrix" values="0 0 0 0 0.690196 0 0 0 0 0.552941 0 0 0 0 0.427451 0 0 0 0.3 0"/>
<feBlend mode="normal" in2="effect1_dropShadow_2005_590" result="effect2_dropShadow_2005_590"/>
<feBlend mode="normal" in="SourceGraphic" in2="effect2_dropShadow_2005_590" result="shape"/>
</filter>
<filter id="filter1_dd_2005_590" x="0" y="5" width="24" height="26" filterUnits="userSpaceOnUse" color-interpolation-filters="sRGB">
<feFlood flood-opacity="0" result="BackgroundImageFix"/>
<feColorMatrix in="SourceAlpha" type="matrix" values="0 0 0 0 0 0 0 0 0 0 0 0 0 0 0 0 0 0 127 0" result="hardAlpha"/>
<feOffset dy="1"/>
<feGaussianBlur stdDeviation="1.5"/>
<feColorMatrix type="matrix" values="0 0 0 0 0.690196 0 0 0 0 0.552941 0 0 0 0 0.427451 0 0 0 0.15 0"/>
<feBlend mode="normal" in2="BackgroundImageFix" result="effect1_dropShadow_2005_590"/>
<feColorMatrix in="SourceAlpha" type="matrix" values="0 0 0 0 0 0 0 0 0 0 0 0 0 0 0 0 0 0 127 0" result="hardAlpha"/>
<feOffset dy="1"/>
<feGaussianBlur stdDeviation="1"/>
<feColorMatrix type="matrix" values="0 0 0 0 0.690196 0 0 0 0 0.552941 0 0 0 0 0.427451 0 0 0 0.3 0"/>
<feBlend mode="normal" in2="effect1_dropShadow_2005_590" result="effect2_dropShadow_2005_590"/>
<feBlend mode="normal" in="SourceGraphic" in2="effect2_dropShadow_2005_590" result="shape"/>
</filter>
</defs>
</svg>
