<svg width="48" height="48" viewBox="0 0 48 48" fill="none" xmlns="http://www.w3.org/2000/svg">
<rect x="0.5" y="0.5" width="47" height="47" rx="7.5" stroke="#C9A9A0"/>
<path d="M41.1084 8.04659C40.6339 7.65185 40.0612 7.39316 39.4514 7.29807C38.8415 7.20298 38.2172 7.27504 37.6451 7.50659L7.77675 19.5649C7.13817 19.8278 6.5946 20.2785 6.21816 20.8574C5.84171 21.4364 5.65018 22.1161 5.66899 22.8064C5.68779 23.4967 5.91603 24.1649 6.32344 24.7225C6.73084 25.2801 7.29815 25.7006 7.95008 25.9283L13.9918 28.0299L17.3584 39.1666C17.4046 39.3152 17.4713 39.4566 17.5568 39.5866C17.5701 39.6066 17.5884 39.6199 17.6018 39.6416C17.7 39.7783 17.8186 39.8992 17.9534 39.9999C17.9911 40.0294 18.03 40.0572 18.0701 40.0833C18.228 40.188 18.4027 40.2647 18.5868 40.3099L18.6084 40.3116L18.6184 40.3166C18.7298 40.339 18.8431 40.3501 18.9568 40.3499L18.9868 40.3449C19.1574 40.3421 19.3267 40.3128 19.4884 40.2583C19.5268 40.2449 19.5584 40.2249 19.5951 40.2083C19.7161 40.1586 19.8308 40.0949 19.9368 40.0183C20.0212 39.9466 20.1056 39.8749 20.1901 39.8033L24.6934 34.8316L31.4101 40.0349C32.0013 40.4954 32.729 40.7458 33.4784 40.7466C34.2638 40.7457 35.025 40.4747 35.6344 39.9792C36.2437 39.4836 36.6641 38.7936 36.8251 38.0249L42.2634 11.3299C42.3864 10.7293 42.3439 10.1066 42.1405 9.52834C41.9371 8.95004 41.5803 8.43788 41.1084 8.04659ZM19.6168 28.5599C19.3859 28.7903 19.2282 29.0837 19.1634 29.4033L18.6468 31.9099L17.3401 27.5883L24.1151 24.0599L19.6168 28.5599ZM33.4534 37.3999L25.5151 31.2499C25.1829 30.9936 24.7664 30.8718 24.3485 30.9089C23.9306 30.946 23.5419 31.1391 23.2601 31.4499L21.8167 33.0416L22.3268 30.5633L34.1318 18.7583C34.4118 18.4764 34.582 18.1038 34.6117 17.7076C34.6413 17.3114 34.5284 16.9176 34.2933 16.5973C34.0583 16.277 33.7165 16.0512 33.3296 15.9606C32.9428 15.87 32.5363 15.9206 32.1834 16.1033L15.2418 24.9233L9.03342 22.6516L38.9984 10.6666L33.4534 37.3999Z" fill="#9D7165"/>
</svg>
