<svg width="107" height="48" viewBox="0 0 107 48" fill="none" xmlns="http://www.w3.org/2000/svg">
<g filter="url(#filter0_d_2005_206)">
<path d="M29.5645 7.38949C29.7517 6.83322 29.4532 6.22718 28.8867 6.07347C25.8482 5.24899 22.6383 5.24468 19.587 6.07051C16.193 6.98908 13.1476 8.89347 10.8359 11.5428C8.52424 14.1922 7.05011 17.4676 6.59993 20.9548C6.1952 24.0898 6.63444 27.2695 7.86307 30.1683C8.09212 30.7087 8.73302 30.9224 9.25878 30.6614C9.78454 30.4005 9.99561 29.7639 9.77095 29.2217C8.72669 26.7011 8.35705 23.945 8.70795 21.2269C9.1043 18.1566 10.4022 15.2729 12.4375 12.9403C14.4728 10.6077 17.1541 8.93096 20.1423 8.12221C22.7877 7.40623 25.5685 7.39897 28.2074 8.09204C28.7751 8.24114 29.3772 7.94575 29.5645 7.38949Z" fill="#B48B7F"/>
<path d="M13.1203 31.5644C13.1203 33.0985 11.8766 34.3422 10.3425 34.3422C8.80835 34.3422 7.5647 33.0985 7.5647 31.5644C7.5647 30.0303 8.80835 28.7866 10.3425 28.7866C11.8766 28.7866 13.1203 30.0303 13.1203 31.5644ZM9.24041 31.5644C9.24041 32.1731 9.73382 32.6665 10.3425 32.6665C10.9511 32.6665 11.4445 32.1731 11.4445 31.5644C11.4445 30.9557 10.9511 30.4623 10.3425 30.4623C9.73382 30.4623 9.24041 30.9557 9.24041 31.5644Z" fill="#B48B7F"/>
<circle cx="32.0091" cy="8.78689" r="1.11111" fill="#B48B7F"/>
<path d="M16.594 38.0996C16.3258 38.6217 16.5306 39.2655 17.0677 39.502C20.3439 40.9444 23.988 41.3674 27.5219 40.7017C31.4048 39.9702 34.9334 37.9661 37.5503 35.0058C40.1673 32.0455 41.7235 28.2977 41.9731 24.3544C42.2003 20.7655 41.3335 17.2008 39.5002 14.1264C39.1996 13.6223 38.5355 13.498 38.0503 13.8282C37.565 14.1584 37.4427 14.8178 37.7392 15.3244C39.3091 18.0062 40.0492 21.1028 39.8519 24.2201C39.6321 27.692 38.2619 30.9916 35.9578 33.598C33.6538 36.2044 30.5471 37.9689 27.1284 38.6129C24.0588 39.1911 20.8949 38.8364 18.0407 37.6074C17.5016 37.3753 16.8621 37.5775 16.594 38.0996Z" fill="#C9A9A0"/>
<path d="M39.7868 12.6757C39.7868 14.2099 38.5431 15.4535 37.009 15.4535C35.4749 15.4535 34.2312 14.2099 34.2312 12.6757C34.2312 11.1416 35.4749 9.89795 37.009 9.89795C38.5431 9.89795 39.7868 11.1416 39.7868 12.6757ZM35.9069 12.6757C35.9069 13.2844 36.4003 13.7778 37.009 13.7778C37.6176 13.7778 38.111 13.2844 38.111 12.6757C38.111 12.0671 37.6176 11.5737 37.009 11.5737C36.4003 11.5737 35.9069 12.0671 35.9069 12.6757Z" fill="#C9A9A0"/>
<circle cx="14.2312" cy="36.5642" r="1.11111" fill="#C9A9A0"/>
<path d="M23.6089 20.968C23.6471 20.6733 23.8981 20.4526 24.1954 20.4526C24.522 20.4526 24.7868 20.7174 24.7868 21.0441V27.1193V33.2133C24.7868 33.5296 24.5304 33.786 24.2141 33.786C23.9115 33.786 23.6612 33.5506 23.6425 33.2486L23.2644 27.1193L23.1456 25.1592C23.1287 24.8793 23.1383 24.5983 23.1743 24.3202L23.6089 20.968Z" fill="#99B62C"/>
<path d="M24.2898 13.302C24.2922 13.3007 24.295 13.3007 24.2972 13.3018C27.0418 14.6686 27.2524 18.5045 24.6738 20.1634L24.287 20.4122L23.9809 20.2125C21.4231 18.5432 21.5932 14.7398 24.2898 13.302Z" fill="#F1F6D1" stroke="#99B62C" stroke-width="1.11111"/>
<path d="M29.8453 18.5284C29.8479 18.5292 29.8499 18.5313 29.8506 18.5335C30.778 21.4561 28.1688 24.2757 25.1833 23.5773L24.7354 23.4725L24.666 23.1137C24.0859 20.115 26.9365 17.5914 29.8453 18.5284Z" fill="#F1F6D1" stroke="#99B62C" stroke-width="1.11111"/>
<path d="M18.2755 18.5284C18.2729 18.5292 18.271 18.5313 18.2703 18.5335C17.3428 21.4561 19.952 24.2757 22.9376 23.5773L23.3854 23.4725L23.4548 23.1137C24.035 20.115 21.1843 17.5914 18.2755 18.5284Z" fill="#F1F6D1" stroke="#99B62C" stroke-width="1.11111"/>
<path d="M29.8453 23.5884C29.8479 23.5892 29.8499 23.5913 29.8506 23.5936C30.778 26.5161 28.1688 29.3358 25.1833 28.6373L24.7354 28.5326L24.666 28.1737C24.0859 25.175 26.9365 22.6515 29.8453 23.5884Z" fill="#F1F6D1" stroke="#99B62C" stroke-width="1.11111"/>
<path d="M18.2755 23.5884C18.2729 23.5892 18.271 23.5913 18.2703 23.5936C17.3428 26.5161 19.952 29.3358 22.9376 28.6373L23.3854 28.5326L23.4548 28.1737C24.035 25.175 21.1843 22.6515 18.2755 23.5884Z" fill="#F1F6D1" stroke="#99B62C" stroke-width="1.11111"/>
<rect x="22.0088" y="23.231" width="3.88889" height="1.66667" fill="#99B62C"/>
</g>
<path d="M100.748 18.82C100.748 19.2466 100.844 19.62 101.036 19.94C101.228 20.26 101.484 20.5106 101.804 20.692C102.135 20.8733 102.498 20.964 102.892 20.964C103.212 20.964 103.522 20.916 103.82 20.82C104.119 20.7133 104.386 20.5746 104.62 20.404C104.866 20.2226 105.052 20.0146 105.18 19.78V21.908C104.924 22.1426 104.588 22.3293 104.172 22.468C103.767 22.596 103.292 22.66 102.748 22.66C101.97 22.66 101.266 22.5 100.636 22.18C100.018 21.86 99.5269 21.412 99.1642 20.836C98.8122 20.2493 98.6362 19.5773 98.6362 18.82C98.6362 18.052 98.8122 17.38 99.1642 16.804C99.5269 16.228 100.018 15.78 100.636 15.46C101.266 15.14 101.97 14.98 102.748 14.98C103.292 14.98 103.767 15.0493 104.172 15.188C104.588 15.316 104.924 15.492 105.18 15.716V17.844C105.052 17.6093 104.86 17.4066 104.604 17.236C104.359 17.0546 104.087 16.916 103.788 16.82C103.49 16.724 103.191 16.676 102.892 16.676C102.498 16.676 102.135 16.772 101.804 16.964C101.484 17.1453 101.228 17.396 101.036 17.716C100.844 18.036 100.748 18.404 100.748 18.82Z" fill="url(#paint0_linear_2005_206)"/>
<path d="M94.7405 12.292C94.7405 11.9507 94.8631 11.6734 95.1085 11.46C95.3538 11.236 95.6471 11.124 95.9885 11.124C96.3298 11.124 96.6178 11.236 96.8525 11.46C97.0978 11.6734 97.2205 11.9507 97.2205 12.292C97.2205 12.6227 97.0978 12.9 96.8525 13.124C96.6178 13.348 96.3298 13.46 95.9885 13.46C95.6471 13.46 95.3538 13.348 95.1085 13.124C94.8631 12.9 94.7405 12.6227 94.7405 12.292ZM94.9645 15.14H96.9805V22.5H94.9645V15.14Z" fill="url(#paint1_linear_2005_206)"/>
<path d="M90.6509 18.02C90.6509 17.5293 90.5549 17.156 90.3629 16.9C90.1709 16.644 89.8616 16.516 89.4349 16.516C89.1469 16.516 88.8909 16.58 88.6669 16.708C88.4429 16.8253 88.2723 16.996 88.1549 17.22C88.0376 17.444 87.9789 17.7106 87.9789 18.02V22.5H85.8989V15.14H87.9789V16.26C88.2029 15.844 88.4963 15.5293 88.8589 15.316C89.2323 15.092 89.6803 14.98 90.2029 14.98C91.0776 14.98 91.7283 15.2306 92.1549 15.732C92.5816 16.2226 92.7949 16.9106 92.7949 17.796V22.5H90.6509V18.02Z" fill="url(#paint2_linear_2005_206)"/>
<path d="M79.0273 20.2122C79.0273 20.4256 79.0806 20.6122 79.1873 20.7722C79.2939 20.9216 79.4379 21.0389 79.6193 21.1242C79.8113 21.1989 80.0193 21.2362 80.2433 21.2362C80.5633 21.2362 80.8513 21.1722 81.1073 21.0442C81.3633 20.9056 81.5713 20.7136 81.7313 20.4682C81.8913 20.2122 81.9713 19.9082 81.9713 19.5562L82.2273 20.5162C82.2273 20.9856 82.0939 21.3802 81.8273 21.7002C81.5713 22.0202 81.2353 22.2602 80.8193 22.4202C80.4139 22.5802 79.9873 22.6602 79.5393 22.6602C79.0806 22.6602 78.6539 22.5696 78.2593 22.3882C77.8646 22.2069 77.5446 21.9456 77.2993 21.6042C77.0646 21.2522 76.9473 20.8256 76.9473 20.3242C76.9473 19.6096 77.1979 19.0442 77.6993 18.6282C78.2006 18.2122 78.9099 18.0042 79.8273 18.0042C80.2966 18.0042 80.7073 18.0522 81.0593 18.1482C81.4219 18.2442 81.7259 18.3616 81.9713 18.5002C82.2166 18.6389 82.3926 18.7722 82.4993 18.9002V19.8602C82.2113 19.6469 81.8859 19.4869 81.5233 19.3802C81.1713 19.2736 80.7979 19.2202 80.4033 19.2202C80.0833 19.2202 79.8219 19.2629 79.6193 19.3482C79.4166 19.4229 79.2673 19.5349 79.1713 19.6842C79.0753 19.8229 79.0273 19.9989 79.0273 20.2122ZM78.2273 17.2202L77.4593 15.8122C77.8433 15.6096 78.3126 15.4176 78.8673 15.2362C79.4219 15.0442 80.0406 14.9482 80.7233 14.9482C81.3526 14.9482 81.9126 15.0389 82.4033 15.2202C82.8939 15.4016 83.2779 15.6682 83.5553 16.0202C83.8326 16.3616 83.9713 16.7829 83.9713 17.2842V22.5002H81.9713V17.7162C81.9713 17.5136 81.9393 17.3429 81.8753 17.2042C81.8113 17.0549 81.7099 16.9322 81.5713 16.8362C81.4433 16.7402 81.2886 16.6709 81.1073 16.6282C80.9259 16.5856 80.7233 16.5642 80.4993 16.5642C80.1579 16.5642 79.8326 16.6016 79.5233 16.6762C79.2139 16.7509 78.9473 16.8416 78.7233 16.9482C78.4993 17.0549 78.3339 17.1456 78.2273 17.2202Z" fill="url(#paint3_linear_2005_206)"/>
<path d="M67.6406 23.012H69.6726C69.6832 23.332 69.7686 23.604 69.9286 23.828C70.0886 24.0626 70.3072 24.244 70.5846 24.372C70.8619 24.5 71.1872 24.564 71.5606 24.564C71.9019 24.564 72.2219 24.484 72.5206 24.324C72.8299 24.164 73.0752 23.9186 73.2566 23.588C73.4486 23.2573 73.5446 22.8413 73.5446 22.34V15.14H75.5446V22.34C75.5446 23.2466 75.3633 23.9933 75.0006 24.58C74.6486 25.1666 74.1739 25.5933 73.5766 25.86C72.9792 26.1373 72.3286 26.276 71.6246 26.276C70.7712 26.276 70.0566 26.1373 69.4806 25.86C68.9046 25.5933 68.4619 25.2093 68.1526 24.708C67.8539 24.2173 67.6832 23.652 67.6406 23.012ZM67.4966 18.756C67.4966 17.9346 67.6619 17.2466 67.9926 16.692C68.3232 16.1266 68.7606 15.7 69.3046 15.412C69.8486 15.124 70.4246 14.98 71.0326 14.98C71.6512 14.98 72.1952 15.1293 72.6646 15.428C73.1446 15.7266 73.5179 16.1586 73.7846 16.724C74.0619 17.2786 74.2006 17.956 74.2006 18.756C74.2006 19.5453 74.0619 20.2226 73.7846 20.788C73.5179 21.3533 73.1446 21.7853 72.6646 22.084C72.1952 22.372 71.6512 22.516 71.0326 22.516C70.4246 22.516 69.8486 22.372 69.3046 22.084C68.7606 21.796 68.3232 21.3746 67.9926 20.82C67.6619 20.2546 67.4966 19.5666 67.4966 18.756ZM69.6406 18.756C69.6406 19.1933 69.7312 19.5666 69.9126 19.876C70.0939 20.1746 70.3392 20.404 70.6486 20.564C70.9579 20.724 71.2886 20.804 71.6406 20.804C71.9499 20.804 72.2486 20.7293 72.5366 20.58C72.8352 20.42 73.0752 20.1906 73.2566 19.892C73.4486 19.5826 73.5446 19.204 73.5446 18.756C73.5446 18.4146 73.4912 18.116 73.3846 17.86C73.2779 17.604 73.1286 17.3906 72.9366 17.22C72.7552 17.0493 72.5526 16.9213 72.3286 16.836C72.1046 16.74 71.8752 16.692 71.6406 16.692C71.2886 16.692 70.9579 16.772 70.6486 16.932C70.3392 17.092 70.0939 17.3266 69.9126 17.636C69.7312 17.9346 69.6406 18.308 69.6406 18.756Z" fill="url(#paint4_linear_2005_206)"/>
<path d="M64.0247 15.1404V22.5004H61.9927V15.1404H64.0247ZM66.1847 17.3004C66.046 17.1724 65.902 17.0764 65.7527 17.0124C65.614 16.9377 65.438 16.9004 65.2247 16.9004C64.9687 16.9004 64.75 16.9697 64.5687 17.1084C64.3873 17.247 64.2487 17.4444 64.1527 17.7004C64.0673 17.9457 64.0247 18.2444 64.0247 18.5964L63.4487 18.0204C63.4487 17.4337 63.5607 16.9164 63.7847 16.4684C64.0087 16.0097 64.302 15.647 64.6647 15.3804C65.0273 15.103 65.4007 14.9644 65.7847 14.9644C66.0513 14.9644 66.302 15.0124 66.5367 15.1084C66.782 15.2044 66.9793 15.3484 67.1287 15.5404L66.1847 17.3004Z" fill="url(#paint5_linear_2005_206)"/>
<path d="M50.9919 16.9002C50.9919 17.6148 51.1413 18.2495 51.4399 18.8042C51.7386 19.3588 52.1493 19.7962 52.6719 20.1162C53.1946 20.4362 53.8026 20.5962 54.4959 20.5962C55.1893 20.5962 55.7973 20.4362 56.3199 20.1162C56.8426 19.7962 57.2479 19.3588 57.5359 18.8042C57.8346 18.2495 57.9839 17.6148 57.9839 16.9002C57.9839 16.1855 57.8399 15.5508 57.5519 14.9962C57.2639 14.4415 56.8586 14.0042 56.3359 13.6842C55.8133 13.3642 55.1999 13.2042 54.4959 13.2042C53.8026 13.2042 53.1946 13.3642 52.6719 13.6842C52.1493 14.0042 51.7386 14.4415 51.4399 14.9962C51.1413 15.5508 50.9919 16.1855 50.9919 16.9002ZM48.5759 16.9002C48.5759 16.0468 48.7253 15.2682 49.0239 14.5642C49.3226 13.8495 49.7386 13.2308 50.2719 12.7082C50.8053 12.1855 51.4293 11.7855 52.1439 11.5082C52.8693 11.2202 53.6533 11.0762 54.4959 11.0762C55.3493 11.0762 56.1333 11.2202 56.8479 11.5082C57.5626 11.7855 58.1866 12.1855 58.7199 12.7082C59.2639 13.2308 59.6799 13.8495 59.9679 14.5642C60.2666 15.2682 60.4159 16.0468 60.4159 16.9002C60.4159 17.7428 60.2666 18.5268 59.9679 19.2522C59.6799 19.9668 59.2693 20.5908 58.7359 21.1242C58.2133 21.6575 57.5893 22.0735 56.8639 22.3722C56.1493 22.6602 55.3599 22.8042 54.4959 22.8042C53.6319 22.8042 52.8373 22.6602 52.1119 22.3722C51.3973 22.0735 50.7733 21.6575 50.2399 21.1242C49.7066 20.5908 49.2959 19.9668 49.0079 19.2522C48.7199 18.5268 48.5759 17.7428 48.5759 16.9002Z" fill="url(#paint6_linear_2005_206)"/>
<path d="M101.861 35.66C101.178 35.66 100.57 35.5 100.037 35.18C99.5139 34.8493 99.1032 34.396 98.8046 33.82C98.5166 33.244 98.3726 32.5773 98.3726 31.82C98.3726 31.052 98.5219 30.38 98.8206 29.804C99.1299 29.228 99.5566 28.78 100.101 28.46C100.655 28.14 101.295 27.98 102.021 27.98C102.746 27.98 103.365 28.1346 103.877 28.444C104.399 28.7426 104.799 29.1746 105.077 29.74C105.354 30.3053 105.493 30.9773 105.493 31.756C105.493 31.8306 105.487 31.9106 105.477 31.996C105.477 32.0706 105.477 32.1186 105.477 32.14H99.1886V31.052H104.469L103.957 31.788C103.989 31.7346 104.021 31.6546 104.053 31.548C104.085 31.4306 104.101 31.3346 104.101 31.26C104.101 30.8226 104.01 30.444 103.829 30.124C103.658 29.804 103.418 29.5533 103.109 29.372C102.799 29.1906 102.437 29.1 102.021 29.1C101.53 29.1 101.109 29.2066 100.757 29.42C100.415 29.6226 100.149 29.9213 99.9566 30.316C99.7752 30.7 99.6792 31.1746 99.6686 31.74C99.6686 32.316 99.7592 32.8066 99.9406 33.212C100.122 33.6173 100.389 33.9266 100.741 34.14C101.093 34.3533 101.519 34.46 102.021 34.46C102.522 34.46 102.965 34.3533 103.349 34.14C103.733 33.916 104.058 33.58 104.325 33.132L105.365 33.788C104.981 34.4066 104.495 34.876 103.909 35.196C103.333 35.5053 102.65 35.66 101.861 35.66Z" fill="#9D7165"/>
<path d="M95.3262 31.02C95.3262 30.412 95.1929 29.9533 94.9262 29.644C94.6595 29.3346 94.2702 29.18 93.7582 29.18C93.3849 29.18 93.0542 29.26 92.7662 29.42C92.4889 29.5693 92.2702 29.7826 92.1102 30.06C91.9609 30.3373 91.8862 30.6573 91.8862 31.02V35.5H90.6062V28.14H91.8862V29.292C92.1315 28.844 92.4355 28.5133 92.7982 28.3C93.1715 28.0866 93.5982 27.98 94.0782 27.98C94.8569 27.98 95.4702 28.2413 95.9182 28.764C96.3769 29.276 96.6062 29.9746 96.6062 30.86V35.5H95.3262V31.02Z" fill="#9D7165"/>
<path d="M86.45 25.1002C86.45 24.8549 86.5353 24.6469 86.7059 24.4762C86.8873 24.3055 87.0953 24.2202 87.33 24.2202C87.5753 24.2202 87.7833 24.3055 87.9539 24.4762C88.1246 24.6469 88.2099 24.8549 88.2099 25.1002C88.2099 25.3349 88.1246 25.5429 87.9539 25.7242C87.7833 25.8949 87.5753 25.9802 87.33 25.9802C87.0953 25.9802 86.8873 25.8949 86.7059 25.7242C86.5353 25.5429 86.45 25.3349 86.45 25.1002ZM86.69 28.1402H87.97V35.5002H86.69V28.1402Z" fill="#9D7165"/>
<path d="M79.3229 33.228C79.3229 33.5053 79.3869 33.7453 79.5149 33.948C79.6535 34.1506 79.8402 34.3053 80.0749 34.412C80.3202 34.508 80.5975 34.556 80.9069 34.556C81.3015 34.556 81.6535 34.476 81.9629 34.316C82.2829 34.156 82.5335 33.932 82.7149 33.644C82.9069 33.3453 83.0029 33.004 83.0029 32.62L83.2589 33.58C83.2589 34.0493 83.1149 34.4386 82.8269 34.748C82.5495 35.0573 82.2029 35.2866 81.7869 35.436C81.3815 35.5853 80.9762 35.66 80.5709 35.66C80.1229 35.66 79.7015 35.5693 79.3069 35.388C78.9229 35.196 78.6135 34.924 78.3789 34.572C78.1442 34.22 78.0269 33.7933 78.0269 33.292C78.0269 32.5773 78.2775 32.0066 78.7789 31.58C79.2909 31.1426 80.0002 30.924 80.9069 30.924C81.4402 30.924 81.8829 30.988 82.2349 31.116C82.5975 31.2333 82.8855 31.372 83.0989 31.532C83.3122 31.6813 83.4562 31.804 83.5309 31.9V32.652C83.1575 32.396 82.7735 32.2146 82.3789 32.108C81.9842 31.9906 81.5629 31.932 81.1149 31.932C80.6989 31.932 80.3575 31.9853 80.0909 32.092C79.8349 32.1986 79.6429 32.348 79.5149 32.54C79.3869 32.732 79.3229 32.9613 79.3229 33.228ZM79.1309 29.836L78.5069 28.892C78.7842 28.6893 79.1629 28.4866 79.6429 28.284C80.1335 28.0813 80.7202 27.98 81.4029 27.98C81.9789 27.98 82.4802 28.0706 82.9069 28.252C83.3442 28.4226 83.6802 28.6733 83.9149 29.004C84.1602 29.3346 84.2829 29.74 84.2829 30.22V35.5H83.0029V30.396C83.0029 30.14 82.9602 29.932 82.8749 29.772C82.7895 29.6013 82.6669 29.468 82.5069 29.372C82.3575 29.276 82.1815 29.2066 81.9789 29.164C81.7762 29.1213 81.5629 29.1 81.3389 29.1C80.9762 29.1 80.6455 29.1426 80.3469 29.228C80.0589 29.3133 79.8135 29.4146 79.6109 29.532C79.4082 29.6493 79.2482 29.7506 79.1309 29.836Z" fill="#9D7165"/>
<path d="M74.5424 28.14V35.5H73.2625V28.14H74.5424ZM76.7665 29.548C76.5958 29.42 76.4411 29.3293 76.3025 29.276C76.1638 29.212 75.9878 29.18 75.7745 29.18C75.4545 29.18 75.2038 29.26 75.0224 29.42C74.8411 29.58 74.7131 29.7986 74.6385 30.076C74.5745 30.3533 74.5424 30.668 74.5424 31.02H73.9664C73.9664 30.4333 74.0678 29.916 74.2705 29.468C74.4838 29.0093 74.7558 28.6466 75.0865 28.38C75.4171 28.1133 75.7531 27.98 76.0944 27.98C76.3611 27.98 76.6065 28.0173 76.8305 28.092C77.0651 28.156 77.2785 28.2893 77.4705 28.492L76.7665 29.548Z" fill="#9D7165"/>
<path d="M66.1355 23.02H67.4155V35.5H66.1355V23.02ZM70.1355 28.14H71.7355L68.5355 31.18L72.0555 35.5H70.4555L66.9355 31.18L70.1355 28.14Z" fill="#9D7165"/>
<path d="M56.2 24.2998H57.56V31.8198C57.56 32.5878 57.768 33.2065 58.184 33.6758C58.6 34.1451 59.208 34.3798 60.008 34.3798C60.808 34.3798 61.416 34.1451 61.832 33.6758C62.248 33.2065 62.456 32.5878 62.456 31.8198V24.2998H63.816V31.8198C63.816 32.3745 63.7253 32.8865 63.544 33.3558C63.3733 33.8251 63.1173 34.2305 62.776 34.5718C62.4453 34.9131 62.0453 35.1798 61.576 35.3718C61.1066 35.5638 60.584 35.6598 60.008 35.6598C59.432 35.6598 58.9093 35.5638 58.44 35.3718C57.9706 35.1798 57.5653 34.9131 57.224 34.5718C56.8933 34.2305 56.6373 33.8251 56.456 33.3558C56.2853 32.8865 56.2 32.3745 56.2 31.8198V24.2998Z" fill="#9D7165"/>
<defs>
<filter id="filter0_d_2005_206" x="0.666667" y="0.777778" width="47.1291" height="47.1291" filterUnits="userSpaceOnUse" color-interpolation-filters="sRGB">
<feFlood flood-opacity="0" result="BackgroundImageFix"/>
<feColorMatrix in="SourceAlpha" type="matrix" values="0 0 0 0 0 0 0 0 0 0 0 0 0 0 0 0 0 0 127 0" result="hardAlpha"/>
<feOffset dy="1.11111"/>
<feGaussianBlur stdDeviation="1.66667"/>
<feColorMatrix type="matrix" values="0 0 0 0 0.364706 0 0 0 0 0.27451 0 0 0 0 0.247059 0 0 0 0.3 0"/>
<feBlend mode="normal" in2="BackgroundImageFix" result="effect1_dropShadow_2005_206"/>
<feBlend mode="normal" in="SourceGraphic" in2="effect1_dropShadow_2005_206" result="shape"/>
</filter>
<linearGradient id="paint0_linear_2005_206" x1="77" y1="8.49998" x2="77" y2="24.5" gradientUnits="userSpaceOnUse">
<stop stop-color="#78911F"/>
<stop offset="1" stop-color="#99B62C"/>
</linearGradient>
<linearGradient id="paint1_linear_2005_206" x1="77" y1="8.50002" x2="77" y2="24.5" gradientUnits="userSpaceOnUse">
<stop stop-color="#78911F"/>
<stop offset="1" stop-color="#99B62C"/>
</linearGradient>
<linearGradient id="paint2_linear_2005_206" x1="76.9999" y1="8.49998" x2="76.9999" y2="24.5" gradientUnits="userSpaceOnUse">
<stop stop-color="#78911F"/>
<stop offset="1" stop-color="#99B62C"/>
</linearGradient>
<linearGradient id="paint3_linear_2005_206" x1="77" y1="8.50024" x2="77" y2="24.5002" gradientUnits="userSpaceOnUse">
<stop stop-color="#78911F"/>
<stop offset="1" stop-color="#99B62C"/>
</linearGradient>
<linearGradient id="paint4_linear_2005_206" x1="76.9998" y1="8.49998" x2="76.9998" y2="24.5" gradientUnits="userSpaceOnUse">
<stop stop-color="#78911F"/>
<stop offset="1" stop-color="#99B62C"/>
</linearGradient>
<linearGradient id="paint5_linear_2005_206" x1="76.9999" y1="8.50036" x2="76.9999" y2="24.5004" gradientUnits="userSpaceOnUse">
<stop stop-color="#78911F"/>
<stop offset="1" stop-color="#99B62C"/>
</linearGradient>
<linearGradient id="paint6_linear_2005_206" x1="76.9999" y1="8.50017" x2="76.9999" y2="24.5002" gradientUnits="userSpaceOnUse">
<stop stop-color="#78911F"/>
<stop offset="1" stop-color="#99B62C"/>
</linearGradient>
</defs>
</svg>
